<?xml version="1.0" standalone="no"?><svg xmlns="http://www.w3.org/2000/svg" viewBox="0 0 1440 320"><path fill="#7f7feb" fill-opacity="1" d="M0,128L11.4,149.3C22.9,171,46,213,69,208C91.4,203,114,149,137,138.7C160,128,183,160,206,181.3C228.6,203,251,213,274,213.3C297.1,213,320,203,343,197.3C365.7,192,389,192,411,186.7C434.3,181,457,171,480,186.7C502.9,203,526,245,549,229.3C571.4,213,594,139,617,128C640,117,663,171,686,213.3C708.6,256,731,288,754,250.7C777.1,213,800,107,823,74.7C845.7,43,869,85,891,133.3C914.3,181,937,235,960,256C982.9,277,1006,267,1029,261.3C1051.4,256,1074,256,1097,250.7C1120,245,1143,235,1166,224C1188.6,213,1211,203,1234,202.7C1257.1,203,1280,213,1303,229.3C1325.7,245,1349,267,1371,229.3C1394.3,192,1417,96,1429,48L1440,0L1440,320L1428.6,320C1417.1,320,1394,320,1371,320C1348.6,320,1326,320,1303,320C1280,320,1257,320,1234,320C1211.4,320,1189,320,1166,320C1142.9,320,1120,320,1097,320C1074.3,320,1051,320,1029,320C1005.7,320,983,320,960,320C937.1,320,914,320,891,320C868.6,320,846,320,823,320C800,320,777,320,754,320C731.4,320,709,320,686,320C662.9,320,640,320,617,320C594.3,320,571,320,549,320C525.7,320,503,320,480,320C457.1,320,434,320,411,320C388.6,320,366,320,343,320C320,320,297,320,274,320C251.4,320,229,320,206,320C182.9,320,160,320,137,320C114.3,320,91,320,69,320C45.7,320,23,320,11,320L0,320Z"></path></svg>